<svg fill="none" height="100%" width="100%" viewBox="0 0 500 500" xmlns:xlink="http://www.w3.org/1999/xlink" xmlns="http://www.w3.org/2000/svg"><g transform="matrix(2.5,0,0,2.5,100,100)" id="i0"><g id="i1" transform="matrix(1,0,0,1,60,15)"><path fill="#000000" d="M0,15C0,15,0,15,0,15C-3.314,15,-6,12.314,-6,9C-6,9,-6,-9,-6,-9C-6,-12.314,-3.314,-15,0,-15C3.314,-15,6,-12.314,6,-9C6,-9,6,9,6,9C6,12.314,3.314,15,0,15Z"><animate repeatCount="indefinite" attributeName="fill-opacity" dur="1.6s" begin="0s" fill="freeze" values="1; 0.9; 0.8; 0.75; 0.7; 0.6; 0.5; 0.4; 0.3; 0.25; 0.2; 0.1; 1" keyTimes="0; 0.083333; 0.166667; 0.25; 0.333333; 0.416667; 0.5; 0.583333; 0.666667; 0.75; 0.833333; 0.916667; 1" keySplines="0 0 1 1; 0 0 1 1; 0 0 1 1; 0 0 1 1; 0 0 1 1; 0 0 1 1; 0 0 1 1; 0 0 1 1; 0 0 1 1; 0 0 1 1; 0 0 1 1; 0 0 1 1" calcMode="spline" /></path></g><g id="i2" transform="matrix(1,0,0,1,82.5,21.029)"><path fill="#000000" fill-opacity="0.1" d="M7.5,-12.991C7.5,-12.991,7.5,-12.991,7.5,-12.991C10.37,-11.334,11.353,-7.665,9.696,-4.795C9.696,-4.795,0.696,10.794,0.696,10.794C-0.961,13.663,-4.63,14.647,-7.5,12.99C-10.37,11.333,-11.353,7.663,-9.696,4.794C-9.696,4.794,-0.696,-10.795,-0.696,-10.795C0.961,-13.665,4.63,-14.648,7.5,-12.991Z"><animate repeatCount="indefinite" attributeName="fill-opacity" dur="1.6s" begin="0s" fill="freeze" values="0.1; 1; 0.9; 0.8; 0.75; 0.7; 0.6; 0.5; 0.4; 0.3; 0.25; 0.2; 0.1" keyTimes="0; 0.083333; 0.166667; 0.25; 0.333333; 0.416667; 0.5; 0.583333; 0.666667; 0.75; 0.833333; 0.916667; 1" keySplines="0 0 1 1; 0 0 1 1; 0 0 1 1; 0 0 1 1; 0 0 1 1; 0 0 1 1; 0 0 1 1; 0 0 1 1; 0 0 1 1; 0 0 1 1; 0 0 1 1; 0 0 1 1" calcMode="spline" /></path></g><g id="i3" transform="matrix(1,0,0,1,98.971,37.5)"><path fill="#000000" fill-opacity="0.2" d="M12.991,-7.5C12.991,-7.5,12.991,-7.5,12.991,-7.5C14.648,-4.63,13.665,-0.961,10.795,0.696C10.795,0.696,-4.794,9.696,-4.794,9.696C-7.663,11.353,-11.333,10.37,-12.99,7.5C-14.647,4.63,-13.663,0.961,-10.794,-0.696C-10.794,-0.696,4.795,-9.696,4.795,-9.696C7.665,-11.353,11.334,-10.37,12.991,-7.5Z"><animate repeatCount="indefinite" attributeName="fill-opacity" dur="1.6s" begin="0s" fill="freeze" values="0.2; 0.1; 1; 0.9; 0.8; 0.75; 0.7; 0.6; 0.5; 0.4; 0.3; 0.25; 0.2" keyTimes="0; 0.083333; 0.166667; 0.25; 0.333333; 0.416667; 0.5; 0.583333; 0.666667; 0.75; 0.833333; 0.916667; 1" keySplines="0 0 1 1; 0 0 1 1; 0 0 1 1; 0 0 1 1; 0 0 1 1; 0 0 1 1; 0 0 1 1; 0 0 1 1; 0 0 1 1; 0 0 1 1; 0 0 1 1; 0 0 1 1" calcMode="spline" /></path></g><g id="i4" transform="matrix(1,0,0,1,105,60)"><path fill="#000000" fill-opacity="0.25" d="M15,0C15,0,15,0,15,0C15,3.314,12.314,6,9,6C9,6,-9,6,-9,6C-12.314,6,-15,3.314,-15,0C-15,-3.314,-12.314,-6,-9,-6C-9,-6,9,-6,9,-6C12.314,-6,15,-3.314,15,0Z"><animate repeatCount="indefinite" attributeName="fill-opacity" dur="1.6s" begin="0s" fill="freeze" values="0.25; 0.2; 0.1; 1; 0.9; 0.8; 0.75; 0.7; 0.6; 0.5; 0.4; 0.3; 0.25" keyTimes="0; 0.083333; 0.166667; 0.25; 0.333333; 0.416667; 0.5; 0.583333; 0.666667; 0.75; 0.833333; 0.916667; 1" keySplines="0 0 1 1; 0 0 1 1; 0 0 1 1; 0 0 1 1; 0 0 1 1; 0 0 1 1; 0 0 1 1; 0 0 1 1; 0 0 1 1; 0 0 1 1; 0 0 1 1; 0 0 1 1" calcMode="spline" /></path></g><g id="i5" transform="matrix(1,0,0,1,98.971,82.5)"><path fill="#000000" fill-opacity="0.3" d="M12.991,7.5C12.991,7.5,12.991,7.5,12.991,7.5C11.334,10.37,7.665,11.353,4.795,9.696C4.795,9.696,-10.794,0.696,-10.794,0.696C-13.663,-0.961,-14.647,-4.63,-12.99,-7.5C-11.333,-10.37,-7.663,-11.353,-4.794,-9.696C-4.794,-9.696,10.795,-0.696,10.795,-0.696C13.665,0.961,14.648,4.63,12.991,7.5Z"><animate repeatCount="indefinite" attributeName="fill-opacity" dur="1.6s" begin="0s" fill="freeze" values="0.3; 0.25; 0.2; 0.1; 1; 0.9; 0.8; 0.75; 0.7; 0.6; 0.5; 0.4; 0.3" keyTimes="0; 0.083333; 0.166667; 0.25; 0.333333; 0.416667; 0.5; 0.583333; 0.666667; 0.75; 0.833333; 0.916667; 1" keySplines="0 0 1 1; 0 0 1 1; 0 0 1 1; 0 0 1 1; 0 0 1 1; 0 0 1 1; 0 0 1 1; 0 0 1 1; 0 0 1 1; 0 0 1 1; 0 0 1 1; 0 0 1 1" calcMode="spline" /></path></g><g id="i6" transform="matrix(1,0,0,1,82.5,98.971)"><path fill="#000000" fill-opacity="0.4" d="M7.5,12.99C7.5,12.99,7.5,12.99,7.5,12.99C4.63,14.647,0.961,13.664,-0.696,10.794C-0.696,10.794,-9.696,-4.795,-9.696,-4.795C-11.353,-7.664,-10.37,-11.334,-7.5,-12.991C-4.63,-14.648,-0.961,-13.664,0.696,-10.795C0.696,-10.795,9.696,4.794,9.696,4.794C11.353,7.664,10.37,11.333,7.5,12.99Z"><animate repeatCount="indefinite" attributeName="fill-opacity" dur="1.6s" begin="0s" fill="freeze" values="0.4; 0.3; 0.25; 0.2; 0.1; 1; 0.9; 0.8; 0.75; 0.7; 0.6; 0.5; 0.4" keyTimes="0; 0.083333; 0.166667; 0.25; 0.333333; 0.416667; 0.5; 0.583333; 0.666667; 0.75; 0.833333; 0.916667; 1" keySplines="0 0 1 1; 0 0 1 1; 0 0 1 1; 0 0 1 1; 0 0 1 1; 0 0 1 1; 0 0 1 1; 0 0 1 1; 0 0 1 1; 0 0 1 1; 0 0 1 1; 0 0 1 1" calcMode="spline" /></path></g><g id="i7" transform="matrix(1,0,0,1,60,105)"><path fill="#000000" fill-opacity="0.5" d="M0,15C0,15,0,15,0,15C-3.314,15,-6,12.314,-6,9C-6,9,-6,-9,-6,-9C-6,-12.314,-3.314,-15,0,-15C3.314,-15,6,-12.314,6,-9C6,-9,6,9,6,9C6,12.314,3.314,15,0,15Z"><animate repeatCount="indefinite" attributeName="fill-opacity" dur="1.6s" begin="0s" fill="freeze" values="0.5; 0.4; 0.3; 0.25; 0.2; 0.1; 1; 0.9; 0.8; 0.75; 0.7; 0.6; 0.5" keyTimes="0; 0.083333; 0.166667; 0.25; 0.333333; 0.416667; 0.5; 0.583333; 0.666667; 0.75; 0.833333; 0.916667; 1" keySplines="0 0 1 1; 0 0 1 1; 0 0 1 1; 0 0 1 1; 0 0 1 1; 0 0 1 1; 0 0 1 1; 0 0 1 1; 0 0 1 1; 0 0 1 1; 0 0 1 1; 0 0 1 1" calcMode="spline" /></path></g><g id="i8" transform="matrix(1,0,0,1,37.5,98.971)"><path fill="#000000" fill-opacity="0.6" d="M7.5,-12.99C7.5,-12.99,7.5,-12.99,7.5,-12.99C10.37,-11.333,11.353,-7.664,9.696,-4.794C9.696,-4.794,0.696,10.795,0.696,10.795C-0.961,13.664,-4.63,14.648,-7.5,12.991C-10.37,11.334,-11.353,7.664,-9.696,4.795C-9.696,4.795,-0.696,-10.794,-0.696,-10.794C0.961,-13.664,4.63,-14.647,7.5,-12.99Z"><animate repeatCount="indefinite" attributeName="fill-opacity" dur="1.6s" begin="0s" fill="freeze" values="0.6; 0.5; 0.4; 0.3; 0.25; 0.2; 0.1; 1; 0.9; 0.8; 0.75; 0.7; 0.6" keyTimes="0; 0.083333; 0.166667; 0.25; 0.333333; 0.416667; 0.5; 0.583333; 0.666667; 0.75; 0.833333; 0.916667; 1" keySplines="0 0 1 1; 0 0 1 1; 0 0 1 1; 0 0 1 1; 0 0 1 1; 0 0 1 1; 0 0 1 1; 0 0 1 1; 0 0 1 1; 0 0 1 1; 0 0 1 1; 0 0 1 1" calcMode="spline" /></path></g><g id="i9" transform="matrix(1,0,0,1,21.029,82.5)"><path fill="#000000" fill-opacity="0.7" d="M12.99,-7.5C12.99,-7.5,12.99,-7.5,12.99,-7.5C14.647,-4.63,13.664,-0.961,10.794,0.696C10.794,0.696,-4.795,9.696,-4.795,9.696C-7.664,11.353,-11.334,10.37,-12.991,7.5C-14.648,4.63,-13.664,0.961,-10.795,-0.696C-10.795,-0.696,4.794,-9.696,4.794,-9.696C7.664,-11.353,11.333,-10.37,12.99,-7.5Z"><animate repeatCount="indefinite" attributeName="fill-opacity" dur="1.6s" begin="0s" fill="freeze" values="0.7; 0.6; 0.5; 0.4; 0.3; 0.25; 0.2; 0.1; 1; 0.9; 0.8; 0.75; 0.7" keyTimes="0; 0.083333; 0.166667; 0.25; 0.333333; 0.416667; 0.5; 0.583333; 0.666667; 0.75; 0.833333; 0.916667; 1" keySplines="0 0 1 1; 0 0 1 1; 0 0 1 1; 0 0 1 1; 0 0 1 1; 0 0 1 1; 0 0 1 1; 0 0 1 1; 0 0 1 1; 0 0 1 1; 0 0 1 1; 0 0 1 1" calcMode="spline" /></path></g><g id="i10" transform="matrix(1,0,0,1,15,60)"><path fill="#000000" fill-opacity="0.75" d="M15,0C15,0,15,0,15,0C15,3.314,12.314,6,9,6C9,6,-9,6,-9,6C-12.314,6,-15,3.314,-15,0C-15,-3.314,-12.314,-6,-9,-6C-9,-6,9,-6,9,-6C12.314,-6,15,-3.314,15,0Z"><animate repeatCount="indefinite" attributeName="fill-opacity" dur="1.6s" begin="0s" fill="freeze" values="0.75; 0.7; 0.6; 0.5; 0.4; 0.3; 0.25; 0.2; 0.1; 1; 0.9; 0.8; 0.75" keyTimes="0; 0.083333; 0.166667; 0.25; 0.333333; 0.416667; 0.5; 0.583333; 0.666667; 0.75; 0.833333; 0.916667; 1" keySplines="0 0 1 1; 0 0 1 1; 0 0 1 1; 0 0 1 1; 0 0 1 1; 0 0 1 1; 0 0 1 1; 0 0 1 1; 0 0 1 1; 0 0 1 1; 0 0 1 1; 0 0 1 1" calcMode="spline" /></path></g><g id="i11" transform="matrix(1,0,0,1,21.029,37.5)"><path fill="#000000" fill-opacity="0.8" d="M12.99,7.5C12.99,7.5,12.99,7.5,12.99,7.5C11.333,10.37,7.664,11.353,4.794,9.696C4.794,9.696,-10.795,0.696,-10.795,0.696C-13.664,-0.961,-14.648,-4.63,-12.991,-7.5C-11.334,-10.37,-7.664,-11.353,-4.795,-9.696C-4.795,-9.696,10.794,-0.696,10.794,-0.696C13.664,0.961,14.647,4.63,12.99,7.5Z"><animate repeatCount="indefinite" attributeName="fill-opacity" dur="1.6s" begin="0s" fill="freeze" values="0.8; 0.75; 0.7; 0.6; 0.5; 0.4; 0.3; 0.25; 0.2; 0.1; 1; 0.9; 0.8" keyTimes="0; 0.083333; 0.166667; 0.25; 0.333333; 0.416667; 0.5; 0.583333; 0.666667; 0.75; 0.833333; 0.916667; 1" keySplines="0 0 1 1; 0 0 1 1; 0 0 1 1; 0 0 1 1; 0 0 1 1; 0 0 1 1; 0 0 1 1; 0 0 1 1; 0 0 1 1; 0 0 1 1; 0 0 1 1; 0 0 1 1" calcMode="spline" /></path></g><g id="i12" transform="matrix(1,0,0,1,37.5,21.029)"><path fill="#000000" fill-opacity="0.9" d="M7.5,12.99C7.5,12.99,7.5,12.99,7.5,12.99C4.63,14.647,0.961,13.664,-0.696,10.794C-0.696,10.794,-9.696,-4.795,-9.696,-4.795C-11.353,-7.664,-10.37,-11.334,-7.5,-12.991C-4.63,-14.648,-0.961,-13.664,0.696,-10.795C0.696,-10.795,9.696,4.794,9.696,4.794C11.353,7.664,10.37,11.333,7.5,12.99Z"><animate repeatCount="indefinite" attributeName="fill-opacity" dur="1.6s" begin="0s" fill="freeze" values="0.9; 0.8; 0.75; 0.7; 0.6; 0.5; 0.4; 0.3; 0.25; 0.2; 0.1; 1; 0.9" keyTimes="0; 0.083333; 0.166667; 0.25; 0.333333; 0.416667; 0.5; 0.583333; 0.666667; 0.75; 0.833333; 0.916667; 1" keySplines="0 0 1 1; 0 0 1 1; 0 0 1 1; 0 0 1 1; 0 0 1 1; 0 0 1 1; 0 0 1 1; 0 0 1 1; 0 0 1 1; 0 0 1 1; 0 0 1 1; 0 0 1 1" calcMode="spline" /></path></g></g></svg>